<?xml version="1.0" encoding="utf-8"?>
<!-- Generator: Adobe Illustrator 19.0.0, SVG Export Plug-In . SVG Version: 6.00 Build 0)  -->
<svg version="1.1" id="Capa_1" xmlns="http://www.w3.org/2000/svg" xmlns:xlink="http://www.w3.org/1999/xlink" x="0px" y="0px"
	 viewBox="108 0 30 40" style="enable-background:new 108 0 30 40;" xml:space="preserve">
<style type="text/css">
	.st0{fill:url(#XMLID_2_);}
</style>
<linearGradient id="XMLID_2_" gradientUnits="userSpaceOnUse" x1="123" y1="1.05" x2="123" y2="39" gradientTransform="matrix(1 0 0 -1 0 40)">
	<stop  offset="0" style="stop-color:#0F435B"/>
	<stop  offset="0.5372" style="stop-color:#10394D"/>
	<stop  offset="1" style="stop-color:#112E3E"/>
</linearGradient>
<path id="XMLID_26_" class="st0" d="M128.3,10.5V9.1c0,0,0-0.3-0.3-0.3h-1.4c0,0-0.3,0-0.3,0.3v0.2l1.5,1.5h0.2
	C128,10.8,128.3,10.8,128.3,10.5 M117.6,15.1l5.4-5.2l5.4,5.2c0.4,0.4,1.1,0.4,1.5,0s0.4-1.1,0-1.5l-6.1-5.9c-0.4-0.4-1.1-0.4-1.5,0
	l-6.1,5.9c-0.4,0.4-0.4,1.1,0,1.5c0.2,0.2,0.5,0.3,0.8,0.3C117.1,15.4,117.4,15.3,117.6,15.1 M128.7,17.3c0-0.3-0.1-0.5-0.2-0.6l0,0
	l0,0c0,0,0,0-0.1-0.1l-4.8-4.8c0,0-0.6-0.6-1.2,0l-4.8,4.8c-0.2,0.1-0.3,0.3-0.3,0.7v4.2c0,0,0,0.8,0.8,0.8h2.5c0,0,0.8,0,0.8-0.8
	v-3.3c0-0.5,0.5-0.5,0.5-0.5h1.9c0.5,0,0.5,0.5,0.5,0.5v3.2c0,0.8,0.8,0.8,0.8,0.8h2.5c0.8,0,0.8-0.8,0.8-0.8v-4.1
	C128.4,17.3,128.7,17.3,128.7,17.3z M123.9,15.2c0,0.5-0.4,0.9-0.9,0.9s-0.9-0.4-0.9-0.9s0.4-0.9,0.9-0.9S123.9,14.7,123.9,15.2
	 M123,27c-6.3,0-11.5-5.1-11.5-11.5C111.5,9.2,116.6,4,123,4c6.3,0,11.5,5.1,11.5,11.5C134.4,21.9,129.3,27,123,27 M137.5,15.5
	C137.5,7.5,131,1,123,1s-14.5,6.5-14.5,14.5c0,3.3,1.1,6.3,2.9,8.7l0,0l10.3,14c0.8,1,2,1,2.8,0l10.3-14l0,0
	C136.5,21.8,137.5,18.8,137.5,15.5"/>
</svg>
