<?xml version="1.0" encoding="utf-8"?>
<!-- Generator: Adobe Illustrator 19.0.0, SVG Export Plug-In . SVG Version: 6.00 Build 0)  -->
<svg version="1.0" id="Capa_1" xmlns="http://www.w3.org/2000/svg" xmlns:xlink="http://www.w3.org/1999/xlink" x="0px" y="0px"
	 viewBox="0 0 35 35" style="enable-background:new 0 0 35 35;" xml:space="preserve">
<g id="XMLID_1_">
	<g id="XMLID_50_">
		<path id="XMLID_17_" style="fill:#253B50;" d="M17.5,34.5c-9.4,0-17-7.6-17-17s7.6-17,17-17s17,7.6,17,17S26.9,34.5,17.5,34.5z"/>
		<path id="XMLID_14_" style="fill:#FFFFFF;" d="M17.5,1C26.6,1,34,8.4,34,17.5S26.6,34,17.5,34S1,26.6,1,17.5S8.4,1,17.5,1 M17.5,0
			C7.8,0,0,7.8,0,17.5S7.8,35,17.5,35S35,27.2,35,17.5S27.2,0,17.5,0L17.5,0z"/>
	</g>
	<path id="XMLID_52_" style="fill:#FFFFFF;" d="M26.9,26.9c-0.7,0.7-1.9,0.7-2.7,0L21,23.6c-1.4,0.9-3,1.4-4.7,1.4
		c-4.8,0-8.8-3.9-8.8-8.8s3.9-8.8,8.8-8.8c4.8,0,8.8,3.9,8.8,8.8c0,1.7-0.5,3.4-1.4,4.7l3.3,3.3C27.7,25,27.7,26.2,26.9,26.9z
		 M16.3,10c-3.5,0-6.3,2.8-6.3,6.3s2.8,6.3,6.3,6.3c3.5,0,6.3-2.8,6.3-6.3S19.7,10,16.3,10z"/>
</g>
</svg>
