<?xml version="1.0" encoding="utf-8"?>
<!-- Generator: Adobe Illustrator 19.0.0, SVG Export Plug-In . SVG Version: 6.00 Build 0)  -->
<svg version="1.0" id="Capa_1" xmlns="http://www.w3.org/2000/svg" xmlns:xlink="http://www.w3.org/1999/xlink" x="0px" y="0px"
	 viewBox="0 0 30 30" style="enable-background:new 0 0 30 30;" xml:space="preserve">
<path id="XMLID_2_" style="fill:#FFFFFF;" d="M26.6,6.5H3.4c-1.6,0-2.9-1.3-2.9-2.9V3.4c0-1.6,1.3-2.9,2.9-2.9h23.2
	c1.6,0,2.9,1.3,2.9,2.9v0.2C29.5,5.2,28.2,6.5,26.6,6.5z"/>
<path id="XMLID_4_" style="fill:#FFFFFF;" d="M26.6,29.5H3.4c-1.6,0-2.9-1.3-2.9-2.9v-0.2c0-1.6,1.3-2.9,2.9-2.9h23.2
	c1.6,0,2.9,1.3,2.9,2.9v0.2C29.5,28.2,28.2,29.5,26.6,29.5z"/>
<path id="XMLID_5_" style="fill:#FFFFFF;" d="M26.6,18H3.4c-1.6,0-2.9-1.3-2.9-2.9v-0.2c0-1.6,1.3-2.9,2.9-2.9h23.2
	c1.6,0,2.9,1.3,2.9,2.9v0.2C29.5,16.7,28.2,18,26.6,18z"/>
</svg>
