<?xml version="1.0" encoding="utf-8"?>
<!-- Generator: Adobe Illustrator 19.0.0, SVG Export Plug-In . SVG Version: 6.00 Build 0)  -->
<svg version="1.0" id="Capa_1" xmlns="http://www.w3.org/2000/svg" xmlns:xlink="http://www.w3.org/1999/xlink" x="0px" y="0px"
	 viewBox="0 0 255 40" style="enable-background:new 0 0 255 40;" xml:space="preserve">
<path id="XMLID_26_" style="fill:#FFFFFF;" d="M119.1,10.5V9.1c0,0,0-0.3-0.3-0.3h-1.4c0,0-0.3,0-0.3,0.3v0.2l1.5,1.5h0.2
	C118.8,10.8,119.1,10.8,119.1,10.5 M108.4,15.1l5.4-5.2l5.4,5.2c0.4,0.4,1.1,0.4,1.5,0c0.4-0.4,0.4-1.1,0-1.5l-6.1-5.9
	c-0.4-0.4-1.1-0.4-1.5,0l-6.1,5.9c-0.4,0.4-0.4,1.1,0,1.5c0.2,0.2,0.5,0.3,0.8,0.3C107.9,15.4,108.2,15.3,108.4,15.1 M119.5,17.3
	c0-0.3-0.1-0.5-0.2-0.6l0,0l0,0c0,0,0,0-0.1-0.1l-4.8-4.8c0,0-0.6-0.6-1.2,0l-4.8,4.8c-0.2,0.1-0.3,0.3-0.3,0.7v4.2
	c0,0,0,0.8,0.8,0.8h2.5c0,0,0.8,0,0.8-0.8v-3.3c0-0.5,0.5-0.5,0.5-0.5h1.9c0.5,0,0.5,0.5,0.5,0.5v3.2c0,0.8,0.8,0.8,0.8,0.8h2.5
	c0.8,0,0.8-0.8,0.8-0.8V17.3z M114.7,15.2c0,0.5-0.4,0.9-0.9,0.9s-0.9-0.4-0.9-0.9s0.4-0.9,0.9-0.9S114.7,14.7,114.7,15.2 M113.8,27
	c-6.3,0-11.5-5.1-11.5-11.5c0-6.3,5.1-11.5,11.5-11.5c6.3,0,11.5,5.1,11.5,11.5C125.2,21.9,120.1,27,113.8,27 M128.3,15.5
	c0-8-6.5-14.5-14.5-14.5c-8,0-14.5,6.5-14.5,14.5c0,3.3,1.1,6.3,2.9,8.7h0l10.3,14c0.8,1,2,1,2.8,0l10.3-14h0
	C127.3,21.8,128.3,18.8,128.3,15.5 M18.5,5.3l-0.4-1.8h-5.9L18.5,5.3z M83.1,13.7l-2.2,11.9h4.3L83.1,13.7z M79.3,4.4h7.9l9,34h-8.6
	l-1.2-6.7h-6.5l-1.2,6.7h-8.1L79.3,4.4z M51,4.4h19.4v6.8H58.9v6.3h10.7v6.6H58.9v7.3h11.5v6.9H51V4.4z M35.4,11v7.3h1.7
	c1.2,0,2.2-0.4,2.8-1.1c0.6-0.7,1-1.7,1-2.8c0-1.1-0.3-2-0.9-2.6c-0.6-0.6-1.4-0.9-2.6-0.9H35.4z M27.5,4.4h12.2
	c2.8,0,5,0.7,6.7,2.1C48.1,8,49,10,49,12.6c0,2.2-0.6,4-1.8,5.5c-1.2,1.5-3.1,2.7-5.5,3.6c3.1,0.5,5,2.4,5.7,5.8l2.3,10.8h-8.7
	L39.7,29c-0.2-1.6-0.6-2.8-1.1-3.5c-0.5-0.7-1.3-1.1-2.4-1.1h-0.7v14h-7.9V4.4z M14.1,13.7l-2.2,11.9h4.3L14.1,13.7z M10.3,4.4
	l8.6,2.7l8.2,31.3h-8.6l-1.2-6.7h-6.5l-1.2,6.7H1.4L10.3,4.4z M234.7,4.9h18.9v6.7h-11.1v6.1h10.4v6.5h-10.4v7.1h11.1v6.8h-18.9V4.9
	z M219,23.7v7.7h2.5c1.2,0,2.3-0.4,3.1-1.1c0.8-0.7,1.2-1.6,1.2-2.8c0-1.2-0.4-2.1-1.2-2.8c-0.8-0.7-1.8-1.1-3.1-1.1H219z M219,11.3
	v6.3h0.9c1.2,0,2.1-0.3,2.7-0.9c0.7-0.6,1-1.4,1-2.5c0-1-0.3-1.7-0.8-2.2c-0.5-0.5-1.3-0.7-2.4-0.7H219z M229,7
	c1.5,1.4,2.3,3.3,2.3,5.6c0,1.8-0.5,3.3-1.4,4.5c-0.9,1.3-2.3,2.3-4.2,3.1c2.6,0.4,4.6,1.3,5.9,2.6c1.3,1.4,1.9,3.2,1.9,5.6
	c0,2.9-1.1,5.2-3.2,6.9c-2.1,1.7-5,2.6-8.6,2.6h-10.6V4.9H223C225.5,4.9,227.5,5.6,229,7 M200.5,4.9h7.8v33.1h-7.8V4.9z M185.3,11.3
	v7.1h1.7c1.2,0,2.1-0.4,2.8-1.1c0.6-0.7,0.9-1.6,0.9-2.7c0-1.1-0.3-1.9-0.8-2.5c-0.6-0.6-1.4-0.8-2.5-0.8H185.3z M177.6,4.9h11.9
	c2.7,0,4.9,0.7,6.5,2.1c1.7,1.4,2.5,3.4,2.5,5.9c0,2.1-0.6,3.9-1.8,5.4c-1.2,1.5-3,2.6-5.4,3.5c3,0.5,4.8,2.4,5.5,5.7l2.3,10.5h-8.4
	l-1.2-9.2c-0.2-1.6-0.6-2.7-1.1-3.4c-0.5-0.7-1.3-1.1-2.4-1.1h-0.7v13.6h-7.7V4.9z M164.6,13.9l-2.1,11.6h4.2L164.6,13.9z
	 M160.9,4.9h7.7l8.7,33.1h-8.4l-1.2-6.6h-6.3l-1.2,6.6h-7.9L160.9,4.9z M152.1,37.1c-1.9,0.9-3.7,1.4-5.5,1.4
	c-3.7,0-6.7-1.6-8.9-4.9c-2.2-3.2-3.3-7.3-3.3-12.1c0-3,0.5-5.8,1.4-8.4c0.9-2.7,2.4-4.8,4.4-6.4c2-1.6,4.2-2.4,6.8-2.4
	c1.6,0,3.2,0.4,5.1,1.2v7.6c-1.2-1.2-2.6-1.8-4-1.8c-1.8,0-3.2,0.9-4.2,2.7c-1,1.8-1.6,4.4-1.6,7.8c0,2.9,0.5,5.3,1.6,7
	c1,1.8,2.4,2.6,4.1,2.6c1.2,0,2.6-0.6,4.2-1.8V37.1z"/>
</svg>
