<?xml version="1.0" encoding="utf-8"?>
<!-- Generator: Adobe Illustrator 19.0.0, SVG Export Plug-In . SVG Version: 6.00 Build 0)  -->
<svg version="1.1" id="Capa_1" xmlns="http://www.w3.org/2000/svg" xmlns:xlink="http://www.w3.org/1999/xlink" x="0px" y="0px"
	 viewBox="0 0 100 60" style="enable-background:new 0 0 100 60;" xml:space="preserve">
<style type="text/css">
	.st0{fill:#FFFFFF;}
</style>
<path class="st0" d="M92.1,8.2V7.1c0,0,0-0.3-0.3-0.3h-1.1c0,0-0.3,0-0.3,0.3v0.2l1.2,1.2h0.2C91.9,8.4,92.1,8.4,92.1,8.2
	 M83.6,11.8l4.3-4.1l4.3,4.1c0.3,0.3,0.9,0.3,1.2,0c0.3-0.3,0.3-0.9,0-1.2l-4.9-4.7c-0.3-0.3-0.9-0.3-1.2,0l-4.9,4.7
	c-0.3,0.3-0.4,0.9,0,1.2c0.2,0.2,0.4,0.3,0.6,0.3C83.2,12.1,83.4,12,83.6,11.8 M92.5,13.6c0-0.2-0.1-0.4-0.2-0.5l0,0l0,0
	c0,0,0,0,0,0l-3.8-3.8c0,0-0.5-0.5-1,0L83.6,13c-0.1,0.1-0.2,0.3-0.2,0.5v3.4c0,0,0,0.7,0.7,0.7h2c0,0,0.6,0,0.7-0.6v-2.6
	c0-0.4,0.4-0.4,0.4-0.4h1.5c0.4,0,0.4,0.4,0.4,0.4v2.6c0,0.7,0.7,0.7,0.7,0.7h2c0.7,0,0.7-0.7,0.7-0.7V13.6z M88.6,11.9
	c0,0.4-0.3,0.7-0.7,0.7c-0.4,0-0.7-0.3-0.7-0.7c0-0.4,0.3-0.7,0.7-0.7C88.3,11.1,88.6,11.5,88.6,11.9 M87.9,21.3
	c-5,0-9.1-4.1-9.1-9.1c0-5,4.1-9.1,9.1-9.1c5,0,9.1,4.1,9.1,9.1C97,17.2,92.9,21.3,87.9,21.3 M99.5,12.2c0-6.4-5.2-11.6-11.6-11.6
	c-6.4,0-11.6,5.2-11.6,11.6c0,2.6,0.9,5,2.3,6.9h0l8.2,11.1c0.6,0.8,1.6,0.8,2.2,0l8.2-11.1h0C98.6,17.2,99.5,14.8,99.5,12.2
	 M15.6,4l-0.4-1.4h-4.7L15.6,4z M67.1,10.7l-1.7,9.5h3.4L67.1,10.7z M64.1,3.3h6.3l7.1,27.1h-6.9l-1-5.4h-5.2l-1,5.4H57L64.1,3.3z
	 M41.5,3.3H57v5.5h-9.1v5h8.5V19h-8.5v5.8H57v5.5H41.5V3.3z M29.1,8.5v5.8h1.4c1,0,1.7-0.3,2.3-0.9c0.5-0.6,0.8-1.3,0.8-2.2
	c0-0.9-0.2-1.6-0.7-2c-0.5-0.5-1.1-0.7-2.1-0.7H29.1z M22.7,3.3h9.7c2.2,0,4,0.6,5.4,1.7c1.4,1.1,2.1,2.8,2.1,4.9
	c0,1.7-0.5,3.2-1.5,4.4c-1,1.2-2.4,2.2-4.4,2.9c2.4,0.4,4,1.9,4.5,4.7l1.8,8.6h-6.9l-1-7.5c-0.2-1.3-0.5-2.2-0.9-2.8
	c-0.4-0.6-1.1-0.9-1.9-0.9h-0.6v11.2h-6.3V3.3z M12.1,10.7l-1.7,9.5h3.4L12.1,10.7z M9.1,3.3l6.9,2.1l6.6,25h-6.9l-1-5.4H9.4l-1,5.4
	H2L9.1,3.3z M80.5,32.6h15v5.3h-8.9v4.9h8.3v5.1h-8.3v5.7h8.9V59h-15V32.6z M67.9,47.7v6.2h2c1,0,1.8-0.3,2.5-0.9
	c0.6-0.6,1-1.3,1-2.2c0-0.9-0.3-1.7-1-2.2c-0.7-0.6-1.5-0.8-2.4-0.8H67.9z M67.9,37.7v5h0.7c0.9,0,1.6-0.2,2.2-0.7
	c0.5-0.5,0.8-1.1,0.8-2c0-0.8-0.2-1.3-0.6-1.7c-0.4-0.4-1-0.6-1.9-0.6H67.9z M76,34.3c1.2,1.1,1.8,2.6,1.8,4.5
	c0,1.4-0.4,2.6-1.1,3.6c-0.7,1-1.9,1.8-3.3,2.4c2.1,0.3,3.6,1,4.7,2.1c1,1.1,1.6,2.6,1.6,4.5c0,2.3-0.8,4.2-2.5,5.5
	c-1.7,1.4-4,2.1-6.8,2.1h-8.5V32.6h9.4C73.1,32.6,74.7,33.2,76,34.3 M53.2,32.6h6.2V59h-6.2V32.6z M41,37.7v5.7h1.3
	c1,0,1.7-0.3,2.2-0.9c0.5-0.6,0.8-1.3,0.8-2.2c0-0.9-0.2-1.5-0.7-2c-0.4-0.4-1.1-0.7-2-0.7H41z M34.9,32.6h9.5
	c2.1,0,3.9,0.6,5.2,1.7c1.3,1.1,2,2.7,2,4.7c0,1.7-0.5,3.1-1.4,4.3c-1,1.2-2.4,2.1-4.3,2.8c2.4,0.4,3.9,1.9,4.4,4.5l1.8,8.4h-6.7
	l-1-7.3c-0.2-1.2-0.5-2.1-0.9-2.7c-0.4-0.6-1-0.9-1.9-0.9H41V59h-6.2V32.6z M24.5,39.8L22.8,49h3.3L24.5,39.8z M21.6,32.6h6.1
	l7,26.4h-6.7L27,53.8H22L21,59h-6.3L21.6,32.6z M14.6,58.3c-1.5,0.7-3,1.1-4.4,1.1c-3,0-5.3-1.3-7.1-3.9c-1.8-2.6-2.6-5.8-2.6-9.7
	c0-2.4,0.4-4.6,1.1-6.7c0.8-2.1,1.9-3.8,3.5-5.1c1.6-1.3,3.4-1.9,5.4-1.9c1.2,0,2.6,0.3,4,1v6c-1-1-2.1-1.5-3.2-1.5
	c-1.4,0-2.6,0.7-3.4,2.2c-0.8,1.4-1.2,3.5-1.2,6.2c0,2.3,0.4,4.2,1.2,5.6c0.8,1.4,1.9,2.1,3.3,2.1c1,0,2.1-0.5,3.3-1.4V58.3z"/>
</svg>
