<?xml version="1.0" encoding="utf-8"?>
<!-- Generator: Adobe Illustrator 19.0.0, SVG Export Plug-In . SVG Version: 6.00 Build 0)  -->
<svg version="1.1" id="Capa_1" xmlns="http://www.w3.org/2000/svg" xmlns:xlink="http://www.w3.org/1999/xlink" x="0px" y="0px"
	 viewBox="108 0 255 40" style="enable-background:new 108 0 255 40;" xml:space="preserve">
<style type="text/css">
	.st0{fill:#048ABF;}
</style>
<path id="XMLID_26_" class="st0" d="M227.1,10.5V9.1c0,0,0-0.3-0.3-0.3h-1.4c0,0-0.3,0-0.3,0.3v0.2l1.5,1.5h0.2
	C226.8,10.8,227.1,10.8,227.1,10.5 M216.4,15.1l5.4-5.2l5.4,5.2c0.4,0.4,1.1,0.4,1.5,0c0.4-0.4,0.4-1.1,0-1.5l-6.1-5.9
	c-0.4-0.4-1.1-0.4-1.5,0l-6.1,5.9c-0.4,0.4-0.4,1.1,0,1.5c0.2,0.2,0.5,0.3,0.8,0.3C215.9,15.4,216.2,15.3,216.4,15.1 M227.5,17.3
	c0-0.3-0.1-0.5-0.2-0.6l0,0l0,0c0,0,0,0-0.1-0.1l-4.8-4.8c0,0-0.6-0.6-1.2,0l-4.8,4.8c-0.2,0.1-0.3,0.3-0.3,0.7v4.2
	c0,0,0,0.8,0.8,0.8h2.5c0,0,0.8,0,0.8-0.8v-3.3c0-0.5,0.5-0.5,0.5-0.5h1.9c0.5,0,0.5,0.5,0.5,0.5v3.2c0,0.8,0.8,0.8,0.8,0.8h2.5
	c0.8,0,0.8-0.8,0.8-0.8v-4.1H227.5z M222.7,15.2c0,0.5-0.4,0.9-0.9,0.9s-0.9-0.4-0.9-0.9s0.4-0.9,0.9-0.9S222.7,14.7,222.7,15.2
	 M221.8,27c-6.3,0-11.5-5.1-11.5-11.5c0-6.3,5.1-11.5,11.5-11.5c6.3,0,11.5,5.1,11.5,11.5C233.2,21.9,228.1,27,221.8,27 M236.3,15.5
	c0-8-6.5-14.5-14.5-14.5s-14.5,6.5-14.5,14.5c0,3.3,1.1,6.3,2.9,8.7l0,0l10.3,14c0.8,1,2,1,2.8,0l10.3-14l0,0
	C235.3,21.8,236.3,18.8,236.3,15.5 M126.5,5.3l-0.4-1.8h-5.9L126.5,5.3z M191.1,13.7l-2.2,11.9h4.3L191.1,13.7z M187.3,4.4h7.9l9,34
	h-8.6l-1.2-6.7h-6.5l-1.2,6.7h-8.1L187.3,4.4z M159,4.4h19.4v6.8h-11.5v6.3h10.7v6.6h-10.7v7.3h11.5v6.9H159V4.4z M143.4,11v7.3h1.7
	c1.2,0,2.2-0.4,2.8-1.1c0.6-0.7,1-1.7,1-2.8s-0.3-2-0.9-2.6c-0.6-0.6-1.4-0.9-2.6-0.9h-2V11z M135.5,4.4h12.2c2.8,0,5,0.7,6.7,2.1
	c1.7,1.5,2.6,3.5,2.6,6.1c0,2.2-0.6,4-1.8,5.5s-3.1,2.7-5.5,3.6c3.1,0.5,5,2.4,5.7,5.8l2.3,10.8H149l-1.3-9.3
	c-0.2-1.6-0.6-2.8-1.1-3.5s-1.3-1.1-2.4-1.1h-0.7v14h-7.9v-34H135.5z M122.1,13.7l-2.2,11.9h4.3L122.1,13.7z M118.3,4.4l8.6,2.7
	l8.2,31.3h-8.6l-1.2-6.7h-6.5l-1.2,6.7h-8.2L118.3,4.4z M342.7,4.9h18.9v6.7h-11.1v6.1h10.4v6.5h-10.4v7.1h11.1v6.8h-18.9V4.9z
	 M327,23.7v7.7h2.5c1.2,0,2.3-0.4,3.1-1.1s1.2-1.6,1.2-2.8c0-1.2-0.4-2.1-1.2-2.8c-0.8-0.7-1.8-1.1-3.1-1.1L327,23.7L327,23.7z
	 M327,11.3v6.3h0.9c1.2,0,2.1-0.3,2.7-0.9c0.7-0.6,1-1.4,1-2.5c0-1-0.3-1.7-0.8-2.2s-1.3-0.7-2.4-0.7C328.4,11.3,327,11.3,327,11.3z
	 M337,7c1.5,1.4,2.3,3.3,2.3,5.6c0,1.8-0.5,3.3-1.4,4.5c-0.9,1.3-2.3,2.3-4.2,3.1c2.6,0.4,4.6,1.3,5.9,2.6c1.3,1.4,1.9,3.2,1.9,5.6
	c0,2.9-1.1,5.2-3.2,6.9c-2.1,1.7-5,2.6-8.6,2.6h-10.6v-33H331C333.5,4.9,335.5,5.6,337,7 M308.5,4.9h7.8V38h-7.8V4.9z M293.3,11.3
	v7.1h1.7c1.2,0,2.1-0.4,2.8-1.1c0.6-0.7,0.9-1.6,0.9-2.7s-0.3-1.9-0.8-2.5c-0.6-0.6-1.4-0.8-2.5-0.8
	C295.4,11.3,293.3,11.3,293.3,11.3z M285.6,4.9h11.9c2.7,0,4.9,0.7,6.5,2.1c1.7,1.4,2.5,3.4,2.5,5.9c0,2.1-0.6,3.9-1.8,5.4
	c-1.2,1.5-3,2.6-5.4,3.5c3,0.5,4.8,2.4,5.5,5.7l2.3,10.5h-8.4l-1.2-9.2c-0.2-1.6-0.6-2.7-1.1-3.4c-0.5-0.7-1.3-1.1-2.4-1.1h-0.7
	v13.6h-7.7L285.6,4.9L285.6,4.9z M272.6,13.9l-2.1,11.6h4.2L272.6,13.9z M268.9,4.9h7.7l8.7,33.1h-8.4l-1.2-6.6h-6.3l-1.2,6.6h-7.9
	L268.9,4.9z M260.1,37.1c-1.9,0.9-3.7,1.4-5.5,1.4c-3.7,0-6.7-1.6-8.9-4.9c-2.2-3.2-3.3-7.3-3.3-12.1c0-3,0.5-5.8,1.4-8.4
	c0.9-2.7,2.4-4.8,4.4-6.4s4.2-2.4,6.8-2.4c1.6,0,3.2,0.4,5.1,1.2v7.6c-1.2-1.2-2.6-1.8-4-1.8c-1.8,0-3.2,0.9-4.2,2.7
	s-1.6,4.4-1.6,7.8c0,2.9,0.5,5.3,1.6,7c1,1.8,2.4,2.6,4.1,2.6c1.2,0,2.6-0.6,4.2-1.8v7.5H260.1z"/>
</svg>
